<?xml version="1.0" encoding="UTF-8"?>
<svg version="1.1" xmlns="http://www.w3.org/2000/svg" width="512" height="512">
<path d="M0 0 C1.39328639 -0.00389777 2.78657161 -0.00823462 4.17985535 -0.01298523 C7.08877425 -0.02040823 9.99757172 -0.02018536 12.90649414 -0.01489258 C16.60119497 -0.00911026 20.29539247 -0.02601775 23.99001026 -0.04923725 C26.86511554 -0.06410035 29.74010319 -0.06482928 32.6152401 -0.06172752 C34.62899874 -0.06247819 36.64273936 -0.07624859 38.65644836 -0.09040833 C54.42986839 -0.01189507 67.64413937 3.78164372 79.21875 14.79296875 C90.51429223 26.98076389 93.18030479 40.89199508 92.93359375 57.0078125 C92.92611021 58.46896073 92.92042731 59.93011917 92.91644287 61.39128113 C92.90135218 65.1906529 92.86221974 68.98938849 92.81762695 72.78851318 C92.77631077 76.6837911 92.75835523 80.57917433 92.73828125 84.47460938 C92.69570406 92.08361973 92.62766157 99.69211052 92.54296875 107.30078125 C91.33713135 107.47383789 91.33713135 107.47383789 90.10693359 107.65039062 C89.04168457 107.81345703 87.97643555 107.97652344 86.87890625 108.14453125 C85.82751465 108.30115234 84.77612305 108.45777344 83.69287109 108.61914062 C77.49332907 109.96072498 72.52591736 112.740314 68.625 117.77734375 C64.5727537 124.3032891 63.41959592 129.43444451 62.98046875 137.05078125 C62.93728516 137.74816406 62.89410156 138.44554687 62.84960938 139.1640625 C62.74407279 140.87610047 62.64306965 142.58841686 62.54296875 144.30078125 C64.85296875 144.30078125 67.16296875 144.30078125 69.54296875 144.30078125 C69.51976562 143.59953125 69.4965625 142.89828125 69.47265625 142.17578125 C69.28895876 132.51854187 69.95328282 126.54890366 76.30078125 119.0625 C82.53454917 114.16453949 89.29090381 113.86953076 96.88671875 113.89453125 C98.33951233 113.87827698 98.33951233 113.87827698 99.82165527 113.86169434 C103.93200117 113.81615447 108.04227944 113.80439498 112.15283203 113.78955078 C115.16851733 113.77378187 118.18368938 113.74076986 121.19921875 113.70703125 C122.57611877 113.71156311 122.57611877 113.71156311 123.98083496 113.71618652 C132.11720179 113.62211365 138.60331776 111.81398935 144.71875 106.20703125 C147.67245097 103.12050861 150.28866013 99.77686553 152.94921875 96.4375 C155.86250393 92.84758826 159.00587191 89.48365992 162.16796875 86.11328125 C166.1432187 81.87558982 170.07360481 77.62172759 173.87109375 73.22265625 C176.65231292 70.02555384 179.50460614 66.89279824 182.35546875 63.7578125 C183.72264381 62.22218195 185.06156704 60.66035707 186.35546875 59.0625 C191.15399223 53.16431489 196.90038036 48.71345933 204.54296875 47.30078125 C215.06722526 46.43089013 223.34293784 47.76758155 231.79296875 54.30078125 C239.15445645 61.48812954 242.20861072 70.08867591 242.33392334 80.22779846 C242.31863586 81.42815231 242.30334839 82.62850616 242.28759766 83.86523438 C242.29489899 85.16444321 242.30220032 86.46365204 242.3097229 87.80223083 C242.32834987 91.32947884 242.30985619 94.85559821 242.28305864 98.38275719 C242.26021487 102.09668241 242.26866106 105.8105607 242.27255249 109.52453613 C242.27431176 115.75824131 242.252298 121.99150877 242.21533203 128.22509766 C242.17300628 135.40300801 242.16598077 142.580278 242.17845595 149.75828791 C242.18989777 156.70059202 242.17848825 163.64267365 242.15610886 170.58494568 C242.14688856 173.52245758 242.14503765 176.45983181 242.14928055 179.39735413 C242.15379377 183.51067825 242.12464682 187.6231288 242.09228516 191.73632812 C242.09723999 192.93668198 242.10219482 194.13703583 242.1072998 195.37376404 C241.93265114 209.36409051 237.27527904 220.21853614 227.91796875 230.48828125 C217.21730465 240.7781713 204.64066113 242.58613153 190.5078125 242.609375 C189.14212479 242.62049021 187.77644696 242.63288691 186.41078186 242.64649963 C180.64072491 242.70160752 174.87060167 242.73260731 169.1003418 242.75708008 C165.55836969 242.77300017 162.01674074 242.80325557 158.47494698 242.84184456 C156.48205624 242.85905764 154.48904356 242.85954885 152.49607849 242.85972595 C151.2778389 242.87306473 150.0595993 242.8864035 148.80444336 242.90014648 C147.203964 242.90775246 147.203964 242.90775246 145.57115173 242.91551208 C142.00782805 243.36886604 139.6089238 244.45141746 136.54296875 246.30078125 C134.59732143 249.01625255 134.59732143 249.01625255 133.10546875 252.48828125 C132.63500122 253.48239014 132.63500122 253.48239014 132.1550293 254.49658203 C131.4015342 256.09614005 130.65740189 257.70012426 129.91992188 259.30712891 C128.2569631 262.92259 126.564894 266.52391033 124.87109375 270.125 C122.87780231 274.36447525 120.88662646 278.6048323 118.91040039 282.85229492 C116.22456659 288.62336872 113.53442742 294.39289633 110.75 300.1171875 C110.19856323 301.25329468 110.19856323 301.25329468 109.63598633 302.41235352 C107.4198913 306.24114401 104.63079241 307.93817336 100.54296875 309.30078125 C94.50905925 310.1338654 90.1925231 309.33273435 85.20703125 305.77734375 C81.50364555 302.49124095 80.65978468 299.4415122 80.16552734 294.61499023 C80.26878128 287.12926881 83.20681188 280.03934761 85.58203125 273.0234375 C86.1065752 271.44627554 86.63027253 269.86883179 87.15316772 268.29112244 C88.249216 264.99425253 89.35473932 261.70076192 90.46728516 258.40942383 C91.88326766 254.21821713 93.27640095 250.01984369 94.66254616 245.81868839 C95.73987327 242.56151503 96.82887194 239.30833529 97.92133713 236.05621147 C98.43900007 234.51100273 98.95326924 232.96465227 99.46388626 231.41710091 C103.90187353 218.00543288 108.46104487 206.0318422 121.48046875 199.05078125 C128.12121954 195.72310833 134.90848874 195.00460768 142.19921875 195.10546875 C143.38082581 195.10971359 143.38082581 195.10971359 144.58630371 195.11404419 C147.07202139 195.12512956 149.55736225 195.15021115 152.04296875 195.17578125 C153.74088017 195.18582615 155.4387973 195.19494934 157.13671875 195.203125 C161.27227789 195.22503054 165.40755971 195.25947799 169.54296875 195.30078125 C169.48536377 194.10179199 169.42775879 192.90280273 169.3684082 191.66748047 C169.16702903 187.15442774 169.04223577 182.64175646 168.9387207 178.12548828 C168.88390758 176.18339969 168.80921957 174.24175408 168.71313477 172.30126953 C168.15797507 160.78838567 168.31583875 152.53488105 176.25700378 143.68617249 C177.66536301 142.2048116 179.1031633 140.7515969 180.54296875 139.30078125 C181.62196818 137.97251045 182.68293492 136.62885947 183.70703125 135.2578125 C189.23218949 128.19788808 194.83118333 121.21133645 200.54296875 114.30078125 C198.89296875 112.98078125 197.24296875 111.66078125 195.54296875 110.30078125 C189.16995765 117.76713059 183.08903727 125.40412681 177.18676758 133.24780273 C176.41175903 134.27369507 176.41175903 134.27369507 175.62109375 135.3203125 C175.11642578 136.00174316 174.61175781 136.68317383 174.09179688 137.38525391 C172.54296875 139.30078125 172.54296875 139.30078125 170.85351562 140.80615234 C163.88876426 147.20849381 166.23142883 151.28541993 165.54296875 162.30078125 C119.67296875 162.30078125 73.80296875 162.30078125 26.54296875 162.30078125 C26.56617188 172.4328125 26.589375 182.56484375 26.61328125 193.00390625 C26.62349674 199.41145935 26.63320706 205.81900656 26.640625 212.2265625 C26.65250117 222.40350353 26.66647722 232.58041149 26.69384766 242.75732422 C26.71377019 250.16847659 26.72668249 257.57960219 26.73114574 264.99078059 C26.73375505 268.91563274 26.73989574 272.84040828 26.75442886 276.7652359 C26.76799483 280.45876817 26.7721934 284.15219218 26.76918411 287.84574699 C26.76999742 289.84886428 26.78076422 291.85196976 26.79180908 293.85505676 C26.78905975 295.04695114 26.78631042 296.23884552 26.78347778 297.46685791 C26.78532137 298.50295322 26.78716496 299.53904854 26.78906441 300.60654068 C26.53426177 303.3961047 26.08800616 304.98101457 24.54296875 307.30078125 C20.87515203 309.7459924 17.80843642 310.02315884 13.54296875 309.30078125 C11.11177252 307.43063031 9.90227702 306.0193978 8.54296875 303.30078125 C8.44935384 301.4382301 8.42105802 299.57226849 8.42271423 297.70736694 C8.42065224 295.92364937 8.42065224 295.92364937 8.41854858 294.10389709 C8.42214386 292.79263351 8.42573914 291.48136993 8.42944336 290.13037109 C8.42972532 288.74093121 8.42956733 287.35149118 8.42900085 285.96205139 C8.42871321 282.18335174 8.43460462 278.40468364 8.44157481 274.62599134 C8.44781383 270.67950569 8.44841258 266.73301936 8.44960022 262.78652954 C8.45271191 255.31027845 8.46092313 247.83404193 8.47094971 240.35779727 C8.48420257 230.25727279 8.48961206 220.15674435 8.49545193 210.05621338 C8.50486312 194.13772508 8.52478312 178.21926754 8.54296875 162.30078125 C-36.00703125 162.30078125 -80.55703125 162.30078125 -126.45703125 162.30078125 C-126.45703125 158.01078125 -126.45703125 153.72078125 -126.45703125 149.30078125 C-127.77703125 148.97078125 -129.09703125 148.64078125 -130.45703125 148.30078125 C-131.89819336 146.88061523 -131.89819336 146.88061523 -133.234375 145.046875 C-133.74162109 144.36463867 -134.24886719 143.68240234 -134.77148438 142.97949219 C-135.30708984 142.23989258 -135.84269531 141.50029297 -136.39453125 140.73828125 C-137.54741059 139.18856315 -138.70241768 137.64042602 -139.859375 136.09375 C-140.74665283 134.90338135 -140.74665283 134.90338135 -141.65185547 133.68896484 C-144.50728962 129.91132664 -147.47059622 126.22523152 -150.45703125 122.55078125 C-150.98417725 121.89650146 -151.51132324 121.24222168 -152.05444336 120.56811523 C-155.01458261 116.93145383 -158.07941059 113.55422468 -161.45703125 110.30078125 C-162.77703125 111.62078125 -164.09703125 112.94078125 -165.45703125 114.30078125 C-164.77898437 115.08839844 -164.1009375 115.87601562 -163.40234375 116.6875 C-157.76067474 123.27642987 -152.25737558 129.9259434 -147.1015625 136.90429688 C-145.42742738 139.12266394 -143.76706468 141.00741645 -141.80932617 143.01245117 C-134.10089809 151.33674956 -133.28077867 158.22945273 -133.578125 169.37304688 C-133.66163933 171.28650759 -133.74628829 173.1999191 -133.83203125 175.11328125 C-133.88229661 177.07735948 -133.92790544 179.04156265 -133.96875 181.00585938 C-134.07789889 185.77397067 -134.24982377 190.53596553 -134.45703125 195.30078125 C-133.43456299 195.27983398 -132.41209473 195.25888672 -131.35864258 195.23730469 C-127.5026698 195.16396274 -123.64675624 195.11864581 -119.7902832 195.08105469 C-118.13295059 195.06115064 -116.47568619 195.03401711 -114.81860352 194.99902344 C-101.48429336 194.72483744 -89.48462524 195.44809809 -78.5546875 204.03125 C-70.44806344 212.80210397 -67.41465679 223.17256901 -63.76953125 234.30078125 C-63.16233982 236.12599876 -62.55409152 237.950865 -61.94482422 239.77539062 C-60.70893749 243.48109298 -59.48028203 247.18909437 -58.25537109 250.8984375 C-56.58029674 255.95398936 -54.84823688 260.9883607 -53.1015625 266.01953125 C-52.3359608 268.24334047 -51.57197269 270.46769453 -50.80892944 272.69238281 C-50.32965665 274.08253349 -49.84620696 275.47125214 -49.35830688 276.85839844 C-43.29560723 294.13438648 -43.29560723 294.13438648 -47.01953125 302.11328125 C-49.44796462 305.76442233 -52.29628717 307.91931612 -56.45703125 309.30078125 C-61.69352574 310.19979004 -66.37243451 309.76606121 -70.80395508 306.69360352 C-77.34550901 301.18192649 -80.37283522 291.22295796 -83.78890991 283.56109619 C-84.78058157 281.33851475 -85.7802919 279.11971718 -86.7824707 276.90185547 C-89.15218225 271.65597374 -91.51430654 266.40672241 -93.86621094 261.15283203 C-94.94932017 258.73925838 -96.04445984 256.33165527 -97.14453125 253.92578125 C-97.43432861 253.26843994 -97.72412598 252.61109863 -98.02270508 251.93383789 C-99.63607266 248.43317085 -101.09687145 246.24927628 -104.45703125 244.30078125 C-107.65009768 243.23642577 -109.94277396 243.16996594 -113.29858398 243.15893555 C-114.50091171 243.15190109 -115.70323944 243.14486664 -116.94200134 243.13761902 C-118.89657005 243.1313726 -118.89657005 243.1313726 -120.890625 243.125 C-122.2476529 243.11456624 -123.60467352 243.10314209 -124.96168518 243.09077454 C-130.71685287 243.03849989 -136.47189555 242.99046447 -142.22729492 242.97485352 C-145.75181806 242.96466904 -149.27574847 242.93507655 -152.80003548 242.89353371 C-154.77379327 242.87549651 -156.74770433 242.87785124 -158.72154236 242.88078308 C-173.05841218 242.68867375 -183.95763321 238.32610363 -194.58203125 228.80078125 C-202.12227287 220.98854695 -206.55707095 210.43475758 -206.60420227 199.63494873 C-206.61135757 198.50517105 -206.61851288 197.37539337 -206.62588501 196.21138 C-206.62857391 194.98114609 -206.63126282 193.75091217 -206.6340332 192.48339844 C-206.6406044 191.18039291 -206.6471756 189.87738739 -206.65394592 188.53489685 C-206.67491798 184.22249569 -206.68534136 179.91009446 -206.6953125 175.59765625 C-206.69936251 174.10919425 -206.70347951 172.62073244 -206.70766258 171.13227081 C-206.7266986 164.13824549 -206.74093338 157.14423062 -206.74927455 150.15018439 C-206.75904361 142.09338836 -206.78536094 134.03686729 -206.82577544 125.9801681 C-206.85599074 119.74133477 -206.87074851 113.50258003 -206.87405556 107.26367497 C-206.8763997 103.5426506 -206.88527675 99.82192052 -206.91051674 96.10097504 C-206.93824924 91.94572285 -206.93394985 87.79108119 -206.92700195 83.63574219 C-206.93981201 82.41360519 -206.95262207 81.1914682 -206.96582031 79.93229675 C-206.90283918 69.58279243 -204.30582609 62.59077337 -197.25 55.0234375 C-190.03786993 48.09413606 -182.67575522 46.81280856 -172.9921875 46.99609375 C-160.76875411 48.04960514 -153.04975541 55.97285603 -145.44921875 64.921875 C-144.79179687 65.70691406 -144.134375 66.49195313 -143.45703125 67.30078125 C-141.56667926 69.53463637 -139.66928286 71.76241672 -137.76953125 73.98828125 C-137.2576123 74.58890381 -136.74569336 75.18952637 -136.21826172 75.80834961 C-132.18103775 80.51886179 -128.00151272 85.07781091 -123.75610352 89.60058594 C-120.5656909 93.02372584 -117.60518249 96.55966733 -114.70703125 100.23828125 C-109.5367312 106.65207118 -104.50142257 111.1241097 -96.45703125 113.30078125 C-93.07439538 113.59422307 -89.70247331 113.60155059 -86.30859375 113.609375 C-84.31379915 113.63453407 -82.31900755 113.65993211 -80.32421875 113.68554688 C-77.20183079 113.71425792 -74.07949488 113.73829651 -70.95703125 113.75708008 C-67.92811598 113.77883128 -64.89979946 113.81827376 -61.87109375 113.859375 C-60.94688629 113.85949081 -60.02267883 113.85960663 -59.07046509 113.85972595 C-52.41460567 113.96050314 -46.61405321 114.82026399 -41.21484375 119.0625 C-34.38381773 127.11918859 -34.11503385 133.96485981 -34.45703125 144.30078125 C-32.14703125 144.30078125 -29.83703125 144.30078125 -27.45703125 144.30078125 C-27.73033202 134.05200231 -28.0429703 124.81835744 -34.70703125 116.48828125 C-35.61453125 115.76640625 -36.52203125 115.04453125 -37.45703125 114.30078125 C-38.28654297 113.63949219 -38.28654297 113.63949219 -39.1328125 112.96484375 C-43.20585455 110.0470952 -46.776474 108.89739698 -51.734375 108.15625 C-52.8080835 107.9914917 -53.88179199 107.8267334 -54.98803711 107.65698242 C-55.80280518 107.53943604 -56.61757324 107.42188965 -57.45703125 107.30078125 C-57.55031822 98.92002625 -57.62109015 90.53949352 -57.66427994 82.15834522 C-57.68502435 78.26528707 -57.71309614 74.37258794 -57.75878906 70.47973633 C-57.80272313 66.71252172 -57.82626677 62.94564918 -57.83654022 59.17819786 C-57.84384743 57.7514782 -57.85811263 56.32477412 -57.87995148 54.8982029 C-58.10609153 39.49267517 -54.69879245 26.48570175 -44.23828125 14.828125 C-31.62906914 2.5668944 -16.90859553 -0.01171175 0 0 Z " fill="#FFFFFF" transform="translate(238.45703125,150.69921875)"/>
<path d="M0 0 C7.99362831 5.83174553 14.26898333 13.67434971 16.46484375 23.45703125 C17.81912627 35.52642029 16.72054423 46.42507542 9.83984375 56.70703125 C2.41288387 65.74532657 -7.71210667 70.1681219 -19.12890625 71.8359375 C-28.47871281 72.30646348 -38.5293534 69.26703895 -45.6953125 63.20703125 C-46.30246094 62.62953125 -46.90960938 62.05203125 -47.53515625 61.45703125 C-48.23511719 60.79703125 -48.93507813 60.13703125 -49.65625 59.45703125 C-58.04453912 50.83787179 -60.19085559 41.89188942 -60.07421875 30.16259766 C-59.63813727 19.79039961 -55.84213509 11.81125424 -48.6328125 4.359375 C-35.30288516 -7.72940454 -15.41096669 -9.379556 0 0 Z " fill="#FFFFFF" transform="translate(91.53515625,98.54296875)"/>
<path d="M0 0 C8.07103858 5.7669752 13.87974565 13.94907569 16.5 23.52734375 C16.91155897 26.47964259 16.97885998 29.36192532 16.9375 32.33984375 C16.92775146 33.12810547 16.91800293 33.91636719 16.90795898 34.72851562 C16.58424242 45.4298171 13.42306125 52.58755405 5.91796875 60.30078125 C-2.54563277 68.09440462 -12.15974967 72.30234496 -23.828125 71.875 C-32.8712893 70.69833096 -40.86017551 67.84293052 -47.5 61.52734375 C-48.19996094 60.86734375 -48.89992188 60.20734375 -49.62109375 59.52734375 C-58.00938287 50.90818429 -60.15569934 41.96220192 -60.0390625 30.23291016 C-59.60298102 19.86071211 -55.80697884 11.88156674 -48.59765625 4.4296875 C-35.19999639 -7.720518 -15.5444488 -9.15665187 0 0 Z " fill="#FFFFFF" transform="translate(463.5,98.47265625)"/>
<path d="M0 0 C9.75499782 7.0930683 15.51866016 16.55010198 17.53515625 28.45703125 C18.35033674 40.07335321 14.87039927 50.42684858 7.53515625 59.45703125 C0.0679589 66.91037481 -9.91717096 71.46170934 -20.52734375 71.70703125 C-32.20656478 71.49362356 -41.06692005 67.48655243 -49.5 59.5390625 C-57.77576251 50.73618136 -59.96075007 41.16670928 -59.75 29.36328125 C-58.88142973 17.46505839 -52.76675627 9.23378439 -44.21484375 1.39453125 C-31.07594212 -7.86242217 -13.65824273 -8.54993008 0 0 Z " fill="#FFFFFF" transform="translate(278.46484375,57.54296875)"/>
</svg>
